# Exported from ProBuilder
# http://www.procore3d.com/probuilder
# 7/5/2017 3:57:09 PM

mtllib ./Stairs.mtl
o Stairs

g Stairs
v 0 -1 7
v 2 -1 7
v 0 -0.9985715 7
v 2 -0.9985715 7
v 0 -0.9985715 7
v 2 -0.9985715 7
v -0.2590613 -0.9985715 11.69099
v -1.506041 -0.9985715 10.12733
v -1.506041 -0.9985715 10.12733
v -0.2590613 -0.9985715 11.69099
v -1.506041 -0.9971429 10.12733
v -0.2590613 -0.9971429 11.69099
v -1.506041 -0.9971429 10.12733
v -0.2590613 -0.9971429 11.69099
v -5.335126 -0.9971429 12.84957
v -4.890084 -0.9971429 10.89971
v -4.890084 -0.9971429 10.89971
v -5.335126 -0.9971429 12.84957
v -4.890084 -0.9957143 10.89971
v -5.335126 -0.9957143 12.84957
v -4.890084 -0.9957143 10.89971
v -5.335126 -0.9957143 12.84957
v -9.405813 -0.9957143 9.603302
v -7.603876 -0.9957143 8.735535
v -7.603876 -0.9957143 8.735535
v -9.405813 -0.9957143 9.603302
v -7.603876 -0.9942857 8.735535
v -9.405813 -0.9942857 9.603302
v -7.603876 -0.9942857 8.735535
v -9.405813 -0.9942857 9.603302
v -9.405813 -0.9942857 4.396698
v -7.603875 -0.9942857 5.264465
v -7.603875 -0.9942857 5.264465
v -9.405813 -0.9942857 4.396698
v -7.603875 -0.9928572 5.264465
v -9.405813 -0.9928572 4.396698
v -7.603875 -0.9928572 5.264465
v -9.405813 -0.9928572 4.396698
v -5.335126 -0.9928572 1.150433
v -4.890084 -0.9928572 3.100288
v -4.890084 -0.9928572 3.100288
v -5.335126 -0.9928572 1.150433
v -4.890084 -0.9914286 3.100288
v -5.335126 -0.9914286 1.150433
v -4.890084 -0.9914286 3.100288
v -5.335126 -0.9914286 1.150433
v -0.2590599 -0.9914286 2.309012
v -1.50604 -0.9914286 3.872675
v -1.50604 -0.9914286 3.872675
v -0.2590599 -0.9914286 2.309012
v -1.50604 -0.99 3.872675
v -0.2590599 -0.99 2.309012
v -1.50604 -0.99 3.872675
v -0.2590599 -0.99 2.309012
v 2 -0.99 7.000001
v 0 -0.99 7
v 0 -0.9985715 7
v -1.506041 -1 10.12733
v 0 -1 7
v -1.506041 -0.9985715 10.12733
v -1.506041 -0.9985715 10.12733
v -4.890084 -1 10.89971
v -1.506041 -1 10.12733
v -4.890084 -0.9971429 10.89971
v -1.506041 -0.9971429 10.12733
v -4.890084 -0.9971429 10.89971
v -7.603876 -1 8.735535
v -4.890084 -1 10.89971
v -4.890084 -0.9971429 10.89971
v -7.603876 -0.9957143 8.735535
v -7.603876 -1 8.735535
v -4.890084 -0.9957143 10.89971
v -7.603876 -0.9957143 8.735535
v -7.603876 -0.9957143 8.735535
v -7.603875 -1 5.264465
v -7.603876 -1 8.735535
v -7.603875 -0.9942857 5.264465
v -7.603876 -0.9942857 8.735535
v -7.603875 -0.9942857 5.264465
v -7.603876 -0.9957143 8.735535
v -7.603875 -0.9942857 5.264465
v -4.890084 -1 3.100288
v -7.603875 -1 5.264465
v -4.890084 -0.9928572 3.100288
v -7.603875 -0.9928572 5.264465
v -4.890084 -0.9928572 3.100288
v -7.603875 -0.9942857 5.264465
v -4.890084 -0.9928572 3.100288
v -1.50604 -1 3.872675
v -4.890084 -1 3.100288
v -1.50604 -0.9914286 3.872675
v -4.890084 -0.9914286 3.100288
v -1.50604 -0.9914286 3.872675
v -4.890084 -0.9928572 3.100288
v -1.50604 -0.9914286 3.872675
v 0 -1 7
v -1.50604 -1 3.872675
v 0 -0.99 7
v -1.50604 -0.99 3.872675
v 0 -0.99 7
v -1.50604 -0.9914286 3.872675
v 2 -1 7
v -0.2590613 -1 11.69099
v 2 -0.9985715 7
v -0.2590613 -0.9985715 11.69099
v -0.2590613 -1 11.69099
v -5.335126 -1 12.84957
v -0.2590613 -0.9985715 11.69099
v -5.335126 -0.9971429 12.84957
v -0.2590613 -0.9971429 11.69099
v -5.335126 -1 12.84957
v -9.405813 -1 9.603302
v -5.335126 -0.9971429 12.84957
v -9.405813 -0.9957143 9.603302
v -5.335126 -0.9957143 12.84957
v -9.405813 -1 9.603302
v -9.405813 -1 4.396698
v -9.405813 -0.9957143 9.603302
v -9.405813 -1 4.396698
v -9.405813 -0.9942857 4.396698
v -9.405813 -0.9957143 9.603302
v -9.405813 -0.9942857 4.396698
v -9.405813 -0.9942857 9.603302
v -9.405813 -1 4.396698
v -5.335126 -1 1.150433
v -9.405813 -0.9942857 4.396698
v -5.335126 -0.9928572 1.150433
v -9.405813 -0.9942857 4.396698
v -5.335126 -0.9928572 1.150433
v -9.405813 -0.9928572 4.396698
v -5.335126 -1 1.150433
v -0.2590599 -1 2.309012
v -5.335126 -0.9928572 1.150433
v -0.2590599 -0.9914286 2.309012
v -5.335126 -0.9928572 1.150433
v -0.2590599 -0.9914286 2.309012
v -5.335126 -0.9914286 1.150433
v -0.2590599 -1 2.309012
v 2 -1 7.000001
v -0.2590599 -0.9914286 2.309012
v 2 -0.99 7.000001
v -0.2590599 -0.9914286 2.309012
v 2 -0.99 7.000001
v -0.2590599 -0.99 2.309012
v 0 -0.99 7
v 2 -1 7.000001
v 0 -1 7
v 2 -0.99 7.000001

vn 0 0 -1
vn 0 0 -1
vn 0 0 -1
vn 0 0 -1
vn 0 1 0
vn 0 1 0
vn 0 1 0
vn 0 1 0
vn 0.7818316 0 -0.6234898
vn 0.7818316 0 -0.6234898
vn 0.7818316 0 -0.6234898
vn 0.7818316 0 -0.6234898
vn 0 1 0
vn 0 1 0
vn 0 1 0
vn 0 1 0
vn 0.9749279 0 0.2225211
vn 0.9749279 0 0.2225211
vn 0.9749279 0 0.2225211
vn 0.9749279 0 0.2225211
vn 0 1 0
vn 0 1 0
vn 0 1 0
vn 0 1 0
vn 0.4338836 0 0.900969
vn 0.4338836 0 0.900969
vn 0.4338836 0 0.900969
vn 0.4338836 0 0.900969
vn 0 1 0
vn 0 1 0
vn 0 1 0
vn 0 1 0
vn -0.4338836 0 0.9009689
vn -0.4338836 0 0.9009689
vn -0.4338836 0 0.9009689
vn -0.4338836 0 0.9009689
vn 0 1 0
vn 0 1 0
vn 0 1 0
vn 0 1 0
vn -0.9749279 0 0.2225208
vn -0.9749279 0 0.2225208
vn -0.9749279 0 0.2225208
vn -0.9749279 0 0.2225208
vn 0 1 0
vn 0 1 0
vn 0 1 0
vn 0 1 0
vn -0.7818313 0 -0.6234899
vn -0.7818313 0 -0.6234899
vn -0.7818313 0 -0.6234899
vn -0.7818313 0 -0.6234899
vn 0 1 0
vn 0 1 0
vn 0 1 0
vn 0 1 0
vn -0.9009688 0 -0.4338837
vn -0.5617448 0 -0.7044058
vn -0.9009689 0 -1.192093E-07
vn -0.4486702 0 -0.7945798
vn -0.4486702 0 -0.7945798
vn 0.2004845 0 -0.8783797
vn -0.5617448 0 -0.7044058
vn 0.2004845 0 -0.8783796
vn -0.2225209 0 -0.9749279
vn 0.2004845 0 -0.8783796
vn 0.8117449 0 -0.3909156
vn 0.2004845 0 -0.8783797
vn 0.2004845 0 -0.8783796
vn 0.8117449 0 -0.3909156
vn 0.8117449 0 -0.3909156
vn 0.6234899 0 -0.7818314
vn 0.8117449 0 -0.3909156
vn 0.8117449 0 -0.3909156
vn 0.8117449 0 0.3909158
vn 0.8117449 0 -0.3909156
vn 0.8117449 0 0.3909158
vn 1 0 1.373747E-07
vn 0.8117449 0 0.3909158
vn 0.8117449 0 -0.3909156
vn 0.8117449 0 0.3909158
vn 0.2004844 0 0.8783797
vn 0.8117449 0 0.3909158
vn 0.2004844 0 0.8783797
vn 0.6234899 0 0.7818314
vn 0.2004844 0 0.8783797
vn 0.8117449 0 0.3909158
vn 0.2004844 0 0.8783797
vn -0.561745 0 0.7044057
vn 0.2004844 0 0.8783797
vn -0.561745 0 0.7044057
vn -0.222521 0 0.9749279
vn -0.561745 0 0.7044057
vn 0.2004844 0 0.8783797
vn -0.561745 0 0.7044057
vn -0.9009689 0 -1.192093E-07
vn -0.561745 0 0.7044057
vn -0.900969 0 0.4338835
vn -0.900969 0 0.4338835
vn -0.900969 0 0.4338835
vn -0.561745 0 0.7044057
vn 0.9009689 0 1.341105E-07
vn 0.5617449 0 0.7044059
vn 0.9009689 0 0.4338838
vn 0.4486703 0 0.7945799
vn 0.5617449 0 0.7044059
vn -0.2004845 0 0.8783797
vn 0.4486703 0 0.7945799
vn -0.2004845 0 0.8783797
vn 0.2225209 0 0.974928
vn -0.2004845 0 0.8783797
vn -0.811745 0 0.3909157
vn -0.2004845 0 0.8783797
vn -0.8117449 0 0.3909157
vn -0.6234899 0 0.7818314
vn -0.811745 0 0.3909157
vn -0.8117449 0 -0.3909157
vn -0.8117449 0 0.3909157
vn -0.8117449 0 -0.3909157
vn -0.8117449 0 -0.3909158
vn -0.8117449 0 0.3909157
vn -0.8117449 0 -0.3909158
vn -1 0 0
vn -0.8117449 0 -0.3909157
vn -0.2004844 0 -0.8783797
vn -0.8117449 0 -0.3909158
vn -0.2004844 0 -0.8783797
vn -0.8117449 0 -0.3909158
vn -0.2004844 0 -0.8783797
vn -0.6234899 0 -0.7818316
vn -0.2004844 0 -0.8783797
vn 0.561745 0 -0.7044057
vn -0.2004844 0 -0.8783797
vn 0.561745 0 -0.7044057
vn -0.2004844 0 -0.8783797
vn 0.561745 0 -0.7044057
vn 0.222521 0 -0.9749279
vn 0.561745 0 -0.7044057
vn 0.9009689 0 1.341105E-07
vn 0.561745 0 -0.7044057
vn 0.900969 0 -0.4338835
vn 0.561745 0 -0.7044057
vn 0.900969 0 -0.4338835
vn 0.900969 0 -0.4338836
vn -1.748455E-07 0 1
vn -1.748455E-07 0 1
vn -1.748455E-07 0 1
vn -1.748455E-07 0 1

vt 0 0
vt -2 0
vt 0 0.001428571
vt -2 0.001428571
vt 0.9932133 0.3394375
vt -0.8087244 -0.5283301
vt -0.8087245 4.678275
vt 0.9932132 3.810507
vt -1.506041 0.001428571
vt -3.506041 0.001428571
vt -1.506041 0.002857143
vt -3.506041 0.002857143
vt 3.836802 2.926885
vt 2.034864 2.059118
vt 2.034865 7.265723
vt 3.836802 6.397955
vt -4.890084 0.002857143
vt -6.890084 0.002857143
vt -4.890084 0.004285714
vt -6.890084 0.004285714
vt 8.471923 1.960468
vt 6.669985 1.0927
vt 6.669984 6.299306
vt 8.471922 5.431539
vt -7.603876 0.004285714
vt -9.603876 0.004285714
vt -7.603876 0.005714286
vt -9.603876 0.005714286
vt 9.405813 -1.735536
vt 7.603876 -2.603302
vt 7.603876 2.603302
vt 9.405814 1.735534
vt -7.603876 0.005714286
vt -9.603876 0.005714286
vt -7.603876 0.007142857
vt -9.603876 0.007142857
vt 8.471924 -5.431538
vt 6.669985 -6.299305
vt 6.669985 -1.092701
vt 8.471923 -1.960468
vt -4.890084 0.007142857
vt -6.890084 0.007142857
vt -4.890084 0.008571428
vt -6.890084 0.008571428
vt 3.836801 -6.397956
vt 2.034863 -7.265723
vt 2.034864 -2.059117
vt 3.836801 -2.926885
vt -1.50604 0.008571428
vt -3.506041 0.008571428
vt -1.50604 0.01
vt -3.506041 0.01
vt 0.9932128 -3.810506
vt -0.8087249 -4.678274
vt -0.8087256 0.5283306
vt 0.9932123 -0.3394365
vt 0 0.001428571
vt 3.47107 0
vt 0 0
vt 3.47107 0.001428571
vt -2.164177 0.001431791
vt -5.635247 3.219679E-06
vt -2.164177 3.219679E-06
vt -5.635247 0.002860362
vt -2.164177 0.002860362
vt -1.39179 0.002861497
vt -4.862861 4.353613E-06
vt -1.39179 4.353613E-06
vt -1.39179 0.002861497
vt -4.862861 0.004290068
vt -4.862861 4.353613E-06
vt -1.39179 0.004290068
vt -4.862861 0.004290068
vt 1.735536 0.004285714
vt -1.735534 -1.021464E-10
vt 1.735536 -1.021464E-10
vt -1.735534 0.005714286
vt 1.735536 0.005714286
vt -1.735534 0.005714286
vt 1.735536 0.004285714
vt -4.86286 0.005692391
vt -1.391791 -2.189461E-05
vt -4.86286 -2.189461E-05
vt -1.391791 0.007120963
vt -4.86286 0.007120963
vt -1.391791 0.007120963
vt -4.86286 0.005692391
vt -5.635247 0.007136546
vt -2.164176 -6.311165E-06
vt -5.635247 -6.311165E-06
vt -2.164176 0.008565117
vt -5.635247 0.008565117
vt -2.164176 0.008565117
vt -5.635247 0.007136546
vt -3.471069 0.008571428
vt 6.301217E-07 9.065525E-13
vt -3.471069 1.185803E-12
vt 6.301217E-07 0.01
vt -3.471069 0.01
vt 6.301217E-07 0.01
vt -3.471069 0.008571428
vt 0.8677675 0
vt -4.338838 0
vt 0.8677675 0.001428571
vt -4.338838 0.001428571
vt -1.296409 -4.411734E-05
vt -6.503015 -4.411734E-05
vt -1.296409 0.001384454
vt -6.503015 0.002813025
vt -1.296409 0.002813025
vt -0.5240222 0.0001086773
vt -5.730628 0.0001086773
vt -0.5240222 0.00296582
vt -5.730628 0.004394392
vt -0.5240222 0.004394392
vt 2.603302 1.065082E-10
vt -2.603302 1.065082E-10
vt 2.603302 0.004285714
vt -2.603302 1.065082E-10
vt -2.603302 0.005714286
vt 2.603302 0.004285714
vt -2.603302 0.005714286
vt 2.603302 0.005714286
vt -5.730628 3.018095E-05
vt -0.5240236 3.018095E-05
vt -5.730628 0.005744467
vt -0.5240236 0.007173038
vt -5.730628 0.005744467
vt -0.5240236 0.007173038
vt -5.730628 0.007173038
vt -6.503015 1.387933E-06
vt -1.296408 1.387933E-06
vt -6.503015 0.007144245
vt -1.296408 0.008572816
vt -6.503015 0.007144245
vt -1.296408 0.008572816
vt -6.503015 0.008572816
vt -4.338837 2.08484E-06
vt 0.867768 2.08484E-06
vt -4.338837 0.008573513
vt 0.867768 0.01000209
vt -4.338837 0.008573513
vt 0.867768 0.01000209
vt -4.338837 0.01000209
vt 1.222839E-13 0.01
vt 2 0
vt 1.222839E-13 0
vt 2 0.01

g pb_Mesh-30504
usemtl testy
f 3/3/3 2/2/2 1/1/1
f 3/3/3 4/4/4 2/2/2
f 7/7/7 6/6/6 5/5/5
f 8/8/8 7/7/7 5/5/5
f 11/11/11 10/10/10 9/9/9
f 11/11/11 12/12/12 10/10/10
f 15/15/15 14/14/14 13/13/13
f 16/16/16 15/15/15 13/13/13
f 19/19/19 18/18/18 17/17/17
f 19/19/19 20/20/20 18/18/18
f 23/23/23 22/22/22 21/21/21
f 24/24/24 23/23/23 21/21/21
f 27/27/27 26/26/26 25/25/25
f 27/27/27 28/28/28 26/26/26
f 31/31/31 30/30/30 29/29/29
f 32/32/32 31/31/31 29/29/29
f 35/35/35 34/34/34 33/33/33
f 35/35/35 36/36/36 34/34/34
f 39/39/39 38/38/38 37/37/37
f 40/40/40 39/39/39 37/37/37
f 43/43/43 42/42/42 41/41/41
f 43/43/43 44/44/44 42/42/42
f 47/47/47 46/46/46 45/45/45
f 48/48/48 47/47/47 45/45/45
f 51/51/51 50/50/50 49/49/49
f 51/51/51 52/52/52 50/50/50
f 55/55/55 54/54/54 53/53/53
f 56/56/56 55/55/55 53/53/53
f 59/59/59 58/58/58 57/57/57
f 58/58/58 60/60/60 57/57/57
f 63/63/63 62/62/62 61/61/61
f 62/62/62 64/64/64 61/61/61
f 61/61/61 64/64/64 65/65/65
f 68/68/68 67/67/67 66/66/66
f 71/71/71 70/70/70 69/69/69
f 66/66/66 73/73/73 72/72/72
f 76/76/76 75/75/75 74/74/74
f 75/75/75 77/77/77 74/74/74
f 80/80/80 79/79/79 78/78/78
f 83/83/83 82/82/82 81/81/81
f 82/82/82 84/84/84 81/81/81
f 87/87/87 86/86/86 85/85/85
f 90/90/90 89/89/89 88/88/88
f 89/89/89 91/91/91 88/88/88
f 94/94/94 93/93/93 92/92/92
f 97/97/97 96/96/96 95/95/95
f 96/96/96 98/98/98 95/95/95
f 101/101/101 100/100/100 99/99/99
f 104/104/104 103/103/103 102/102/102
f 104/104/104 105/105/105 103/103/103
f 108/108/108 107/107/107 106/106/106
f 108/108/108 109/109/109 107/107/107
f 110/110/110 109/109/109 108/108/108
f 113/113/113 112/112/112 111/111/111
f 113/113/113 114/114/114 112/112/112
f 115/115/115 114/114/114 113/113/113
f 118/118/118 117/117/117 116/116/116
f 121/121/121 120/120/120 119/119/119
f 123/123/123 122/122/122 118/118/118
f 126/126/126 125/125/125 124/124/124
f 126/126/126 127/127/127 125/125/125
f 130/130/130 129/129/129 128/128/128
f 133/133/133 132/132/132 131/131/131
f 133/133/133 134/134/134 132/132/132
f 137/137/137 136/136/136 135/135/135
f 140/140/140 139/139/139 138/138/138
f 140/140/140 141/141/141 139/139/139
f 144/144/144 143/143/143 142/142/142
f 147/147/147 146/146/146 145/145/145
f 146/146/146 148/148/148 145/145/145

