# Exported from ProBuilder
# http://www.procore3d.com/probuilder
# 7/5/2017 4:06:06 PM

mtllib ./A.mtl
o A

g A
v -24.04 18 -9.62
v -24.04 18.5 -9.62
v -22.86843 18 -6.791573
v -22.86843 18.5 -6.791573
v -22.86843 18 -6.791573
v -22.86843 18.5 -6.791573
v -20.04 18 -5.62
v -20.04 18.5 -5.62
v -20.04 18 -5.62
v -20.04 18.5 -5.62
v -17.21157 18 -6.791573
v -17.21157 18.5 -6.791573
v -17.21157 18 -6.791573
v -17.21157 18.5 -6.791573
v -16.04 18 -9.62
v -16.04 18.5 -9.62
v -16.04 18 -9.62
v -16.04 18.5 -9.62
v -17.21157 18 -12.44843
v -17.21157 18.5 -12.44843
v -17.21157 18 -12.44843
v -17.21157 18.5 -12.44843
v -20.04 18 -13.62
v -20.04 18.5 -13.62
v -20.04 18 -13.62
v -20.04 18.5 -13.62
v -22.86843 18 -12.44843
v -22.86843 18.5 -12.44843
v -22.86843 18 -12.44843
v -22.86843 18.5 -12.44843
v -24.04 18 -9.62
v -24.04 18.5 -9.62
v -17.21157 18.5 -6.791573
v -20.04 18.5 -5.62
v -17.50307 18.47433 -7.08307
v -20.04 18.47433 -6.032239
v -16.04 18.5 -9.62
v -17.21157 18.5 -6.791573
v -16.45224 18.47433 -9.62
v -17.50307 18.47433 -7.08307
v -20.04 18.5 -5.62
v -22.86843 18.5 -6.791573
v -20.04 18.47433 -6.032239
v -22.57693 18.47433 -7.08307
v -22.86843 18.5 -6.791573
v -24.04 18.5 -9.62
v -22.57693 18.47433 -7.08307
v -23.62776 18.47433 -9.62
v -24.04 18.5 -9.62
v -22.86843 18.5 -12.44843
v -23.62776 18.47433 -9.62
v -22.57693 18.47433 -12.15693
v -22.86843 18.5 -12.44843
v -20.04 18.5 -13.62
v -22.57693 18.47433 -12.15693
v -20.04 18.47433 -13.20776
v -20.04 18.5 -13.62
v -17.21157 18.5 -12.44843
v -20.04 18.47433 -13.20776
v -17.50307 18.47433 -12.15693
v -17.21157 18.5 -12.44843
v -16.04 18.5 -9.62
v -17.50307 18.47433 -12.15693
v -16.45224 18.47433 -9.62
v -17.21157 18 -12.44843
v -20.04 18 -13.62
v -17.50307 18.02567 -12.15693
v -20.04 18.02567 -13.20776
v -16.04 18 -9.62
v -17.21157 18 -12.44843
v -16.45224 18.02567 -9.62
v -17.50307 18.02567 -12.15693
v -20.04 18 -13.62
v -22.86843 18 -12.44843
v -20.04 18.02567 -13.20776
v -22.57693 18.02567 -12.15693
v -22.86843 18 -12.44843
v -24.04 18 -9.62
v -22.57693 18.02567 -12.15693
v -23.62776 18.02567 -9.62
v -24.04 18 -9.62
v -22.86843 18 -6.791573
v -23.62776 18.02567 -9.62
v -22.57693 18.02567 -7.08307
v -22.86843 18 -6.791573
v -20.04 18 -5.62
v -22.57693 18.02567 -7.08307
v -20.04 18.02567 -6.032239
v -20.04 18 -5.62
v -17.21157 18 -6.791573
v -20.04 18.02567 -6.032239
v -17.50307 18.02567 -7.08307
v -17.21157 18 -6.791573
v -16.04 18 -9.62
v -17.50307 18.02567 -7.08307
v -16.45224 18.02567 -9.62

vn -0.9238796 0 0.3826835
vn -0.9238796 0 0.3826835
vn -0.9238796 0 0.3826835
vn -0.9238796 0 0.3826835
vn -0.3826834 0 0.9238796
vn -0.3826834 0 0.9238796
vn -0.3826834 0 0.9238796
vn -0.3826834 0 0.9238796
vn 0.3826835 0 0.9238796
vn 0.3826835 0 0.9238796
vn 0.3826835 0 0.9238796
vn 0.3826835 0 0.9238796
vn 0.9238796 0 0.3826834
vn 0.9238796 0 0.3826834
vn 0.9238796 0 0.3826834
vn 0.9238796 0 0.3826834
vn 0.9238795 0 -0.3826834
vn 0.9238795 0 -0.3826834
vn 0.9238795 0 -0.3826834
vn 0.9238795 0 -0.3826834
vn 0.3826835 0 -0.9238796
vn 0.3826835 0 -0.9238796
vn 0.3826835 0 -0.9238796
vn 0.3826835 0 -0.9238796
vn -0.3826833 0 -0.9238795
vn -0.3826833 0 -0.9238795
vn -0.3826833 0 -0.9238795
vn -0.3826833 0 -0.9238795
vn -0.9238794 0 -0.3826835
vn -0.9238794 0 -0.3826835
vn -0.9238794 0 -0.3826835
vn -0.9238794 0 -0.3826835
vn -0.02573982 0.9977354 -0.06214142
vn -0.02573981 0.9977353 -0.0621414
vn -0.02573981 0.9977353 -0.0621414
vn -0.02573981 0.9977354 -0.06214139
vn -0.06214149 0.9977354 -0.02573985
vn -0.06214146 0.9977353 -0.02573984
vn -0.06214146 0.9977353 -0.02573984
vn -0.06214144 0.9977354 -0.02573984
vn 0.02573981 0.9977354 -0.06214138
vn 0.02573981 0.9977354 -0.0621414
vn 0.02573981 0.9977354 -0.0621414
vn 0.02573982 0.9977354 -0.06214141
vn 0.06214146 0.9977354 -0.02573983
vn 0.06214147 0.9977353 -0.02573984
vn 0.06214147 0.9977353 -0.02573984
vn 0.06214149 0.9977353 -0.02573986
vn 0.0621415 0.9977354 0.02573986
vn 0.06214146 0.9977353 0.02573985
vn 0.06214146 0.9977353 0.02573985
vn 0.06214144 0.9977353 0.02573984
vn 0.02573982 0.9977354 0.06214142
vn 0.0257398 0.9977353 0.0621414
vn 0.0257398 0.9977353 0.0621414
vn 0.0257398 0.9977354 0.06214138
vn -0.02573981 0.9977354 0.06214138
vn -0.02573981 0.9977354 0.0621414
vn -0.02573981 0.9977354 0.0621414
vn -0.02573982 0.9977354 0.06214141
vn -0.06214146 0.9977354 0.02573983
vn -0.06214146 0.9977353 0.02573984
vn -0.06214146 0.9977353 0.02573984
vn -0.06214149 0.9977353 0.02573985
vn -0.02573982 -0.9977354 0.06214141
vn -0.02573981 -0.9977354 0.0621414
vn -0.02573981 -0.9977354 0.0621414
vn -0.02573981 -0.9977354 0.06214139
vn -0.06214149 -0.9977354 0.02573985
vn -0.06214146 -0.9977353 0.02573984
vn -0.06214146 -0.9977353 0.02573984
vn -0.06214145 -0.9977354 0.02573984
vn 0.0257398 -0.9977354 0.06214138
vn 0.0257398 -0.9977353 0.0621414
vn 0.0257398 -0.9977353 0.0621414
vn 0.02573981 -0.9977354 0.06214142
vn 0.06214145 -0.9977354 0.02573984
vn 0.06214147 -0.9977353 0.02573985
vn 0.06214147 -0.9977353 0.02573985
vn 0.0621415 -0.9977354 0.02573987
vn 0.0621415 -0.9977354 -0.02573985
vn 0.06214147 -0.9977353 -0.02573984
vn 0.06214147 -0.9977353 -0.02573984
vn 0.06214144 -0.9977354 -0.02573984
vn 0.02573982 -0.9977354 -0.06214141
vn 0.02573981 -0.9977354 -0.0621414
vn 0.02573981 -0.9977354 -0.0621414
vn 0.0257398 -0.9977354 -0.06214139
vn -0.02573981 -0.9977354 -0.06214139
vn -0.02573981 -0.9977353 -0.0621414
vn -0.02573981 -0.9977353 -0.0621414
vn -0.02573982 -0.9977355 -0.06214142
vn -0.06214146 -0.9977354 -0.02573983
vn -0.06214146 -0.9977353 -0.02573984
vn -0.06214146 -0.9977353 -0.02573984
vn -0.0621415 -0.9977354 -0.02573986

vt -1.530734 0
vt -1.530734 0.5
vt 1.530734 0
vt 1.530734 0.5
vt -1.530734 0
vt -1.530734 0.5
vt 1.530734 0
vt 1.530734 0.5
vt -1.530734 0
vt -1.530734 0.5
vt 1.530733 0
vt 1.530733 0.5
vt -1.530734 0
vt -1.530734 0.5
vt 1.530734 0
vt 1.530734 0.5
vt -1.530733 0
vt -1.530733 0.5
vt 1.530733 0
vt 1.530733 0.5
vt -1.530734 0
vt -1.530734 0.5
vt 1.530734 0
vt 1.530734 0.5
vt -1.530734 0
vt -1.530734 0.5
vt 1.530733 0
vt 1.530733 0.5
vt -1.530734 0
vt -1.530734 0.5
vt 1.530734 0
vt 1.530734 0.5
vt -2.840381 2.849488
vt -0.012895 4.02333
vt -2.548319 2.557427
vt -0.01223284 3.610292
vt -4.023345 0.006444514
vt -2.854038 2.835809
vt -3.610308 0.006444549
vt -2.561509 2.544216
vt 0.01289465 4.02333
vt 2.840381 2.849488
vt 0.0122325 3.610292
vt 2.548319 2.557427
vt 2.854038 2.835809
vt 4.023345 0.006444864
vt 2.561509 2.544216
vt 3.610308 0.006444862
vt 4.023345 -0.006444866
vt 2.854038 -2.83581
vt 3.610308 -0.006444867
vt 2.561509 -2.544216
vt 2.84038 -2.849489
vt 0.01289488 -4.02333
vt 2.548319 -2.557427
vt 0.01223271 -3.610292
vt -0.01289478 -4.02333
vt -2.840381 -2.849488
vt -0.01223264 -3.610292
vt -2.548319 -2.557426
vt -2.854038 -2.835809
vt -4.023345 -0.006445214
vt -2.561509 -2.544215
vt -3.610308 -0.006445179
vt 2.827487 -2.818428
vt -4.768366E-08 -3.99227
vt 2.535424 -2.526366
vt -0.0006621901 -3.579232
vt 3.992264 0.006399821
vt 2.822957 -2.822964
vt 3.579227 0.006399856
vt 2.530428 -2.53137
vt -4.768366E-08 -3.99227
vt -2.827486 -2.818429
vt 0.0006621223 -3.579232
vt -2.535424 -2.526367
vt -2.822957 -2.822965
vt -3.992264 0.006400164
vt -2.530427 -2.531371
vt -3.579227 0.006400163
vt -3.992264 -0.006400173
vt -2.822957 2.822964
vt -3.579227 -0.006400174
vt -2.530428 2.531371
vt -2.827486 2.818428
vt 1.747874E-07 3.99227
vt -2.535424 2.526366
vt 0.0006623222 3.579232
vt 1.747874E-07 3.99227
vt 2.827486 2.818428
vt -0.0006619902 3.579232
vt 2.535424 2.526366
vt 2.822957 2.822964
vt 3.992264 -0.006400514
vt 2.530428 2.531371
vt 3.579227 -0.006400479

g pb_Mesh-44346
usemtl testy
f 3/3/3 2/2/2 1/1/1
f 3/3/3 4/4/4 2/2/2
f 7/7/7 6/6/6 5/5/5
f 7/7/7 8/8/8 6/6/6
f 11/11/11 10/10/10 9/9/9
f 11/11/11 12/12/12 10/10/10
f 15/15/15 14/14/14 13/13/13
f 15/15/15 16/16/16 14/14/14
f 19/19/19 18/18/18 17/17/17
f 19/19/19 20/20/20 18/18/18
f 23/23/23 22/22/22 21/21/21
f 23/23/23 24/24/24 22/22/22
f 27/27/27 26/26/26 25/25/25
f 27/27/27 28/28/28 26/26/26
f 31/31/31 30/30/30 29/29/29
f 31/31/31 32/32/32 30/30/30
f 35/35/35 34/34/34 33/33/33
f 35/35/35 36/36/36 34/34/34
f 39/39/39 38/38/38 37/37/37
f 39/39/39 40/40/40 38/38/38
f 43/43/43 42/42/42 41/41/41
f 43/43/43 44/44/44 42/42/42
f 47/47/47 46/46/46 45/45/45
f 47/47/47 48/48/48 46/46/46
f 51/51/51 50/50/50 49/49/49
f 51/51/51 52/52/52 50/50/50
f 55/55/55 54/54/54 53/53/53
f 55/55/55 56/56/56 54/54/54
f 59/59/59 58/58/58 57/57/57
f 59/59/59 60/60/60 58/58/58
f 63/63/63 62/62/62 61/61/61
f 63/63/63 64/64/64 62/62/62
f 67/67/67 66/66/66 65/65/65
f 67/67/67 68/68/68 66/66/66
f 71/71/71 70/70/70 69/69/69
f 71/71/71 72/72/72 70/70/70
f 75/75/75 74/74/74 73/73/73
f 75/75/75 76/76/76 74/74/74
f 79/79/79 78/78/78 77/77/77
f 79/79/79 80/80/80 78/78/78
f 83/83/83 82/82/82 81/81/81
f 83/83/83 84/84/84 82/82/82
f 87/87/87 86/86/86 85/85/85
f 87/87/87 88/88/88 86/86/86
f 91/91/91 90/90/90 89/89/89
f 91/91/91 92/92/92 90/90/90
f 95/95/95 94/94/94 93/93/93
f 95/95/95 96/96/96 94/94/94

